Devil May Cry

produkcja: Japonia 
gatunek: Fantasy, Akcja, Anime
data premiery: 2007-06-14 (Świat)
reżyseria Shin Itagaki 
scenariusz Toshiki Inoue, Shotaro Suga
czas trwania: 25

Opis:

Devil May Cry nawiązuje do przygód łowcy demonów - Dante'go, który sam jest pół-demonem, pół-człowiekiem.. Dante działa na rzecz własnego interesu, nazwanego "Devil May Cry". Postacie są wykreowane na bazie popularnej serii gier na konsolę Playstation 2, wydanych przez Capcom Corporation.

Obsada:

Toshiyuki Morikawa - Dante (głos)
Atsuko Tanaka - Trish (głos)
Fumiko Orikasa - Lady (głos)
Misato Fukuen - Patty (głos)
Akio Ohtsuka - Morrison (głos)
Aya Hisakawa - Matka Patty
Nachi Nozawa - Cid

INFO:

Format : AVI
Format/Info : Audio Video Interleave
File size : 250 MiB
Duration : 24mn 31s
Overall bit rate : 1 425 Kbps
Writing application : VirtualDubMod 1.5.4.1 (build 2178/release)
Writing library : VirtualDubMod build 2178/release

Video
ID : 0
Format : MPEG-4 Visual
Format profile : AdvancedSimple@L5
Format settings, BVOP : No
Format settings, QPel : No
Format settings, GMC : No warppoints
Format settings, Matrix : Custom
Codec ID : XVID
Codec ID/Hint : XviD
Duration : 24mn 31s
Bit rate : 1 226 Kbps
Width : 640 pixels
Height : 368 pixels
Display aspect ratio : 16:9
Frame rate : 25.000 fps
Resolution : 24 bits
Colorimetry : 4:2:0
Scan type : Progressive
Bits/(Pixel*Frame) : 0.208
Stream size : 215 MiB (86%)
Writing library : XviD 1.1.2 (UTC 2006-11-01)

Audio
ID : 1
Format : MPEG Audio
Format version : Version 1
Format profile : Layer 3
Codec ID : 55
Codec ID/Hint : MP3
Duration : 24mn 31s
Bit rate mode : Constant
Bit rate : 192 Kbps
Channel(s) : 2 channels
Sampling rate : 48.0 KHz
Resolution : 16 bits
Stream size : 33.7 MiB (13%)
Alignment : Aligned on interleaves
Interleave, duration : 80 ms (2.00 video frames)
Interleave, preload duration : 504 ms
Writing library : LAME3.97 
Encoding settings : -m j -V 4 -q 2 -lowpass 18.6 -b 192